<mxfile host="app.diagrams.net" modified="2021-09-09T03:38:30.571Z" agent="5.0 (Macintosh; Intel Mac OS X 10_15_6) AppleWebKit/537.36 (KHTML, like Gecko) Chrome/92.0.4515.159 Safari/537.36" etag="0Dpx4-fqpjrHKtO3aOCz" version="14.9.7" type="github">
  <diagram id="tXwRCV2uUOXVd6_iAf8Z" name="第 1 页">
    <mxGraphModel dx="2626" dy="749" grid="1" gridSize="10" guides="1" tooltips="1" connect="1" arrows="1" fold="1" page="0" pageScale="1" pageWidth="827" pageHeight="1169" math="0" shadow="0">
      <root>
        <mxCell id="0" />
        <mxCell id="1" parent="0" />
        <mxCell id="6F7Ck0YBmOQ59BSvPMI2-1" value="Add Job流程：" style="text;html=1;strokeColor=none;fillColor=none;align=center;verticalAlign=middle;whiteSpace=wrap;rounded=0;fontSize=20;fontStyle=1" parent="1" vertex="1">
          <mxGeometry x="-827" width="238.75" height="51" as="geometry" />
        </mxCell>
        <mxCell id="6F7Ck0YBmOQ59BSvPMI2-2" style="edgeStyle=orthogonalEdgeStyle;curved=1;rounded=0;orthogonalLoop=1;jettySize=auto;html=1;exitX=0.5;exitY=1;exitDx=0;exitDy=0;fontSize=12;fontColor=#000000;startArrow=none;startFill=0;strokeColor=#000000;" parent="1" source="6F7Ck0YBmOQ59BSvPMI2-3" target="6F7Ck0YBmOQ59BSvPMI2-6" edge="1">
          <mxGeometry relative="1" as="geometry" />
        </mxCell>
        <mxCell id="6F7Ck0YBmOQ59BSvPMI2-3" value="AddJob Request" style="rounded=0;whiteSpace=wrap;html=1;fontSize=12;fontColor=#000000;strokeColor=#000000;gradientColor=none;align=center;verticalAlign=middle;" parent="1" vertex="1">
          <mxGeometry x="-497" y="20" width="180" height="50" as="geometry" />
        </mxCell>
        <mxCell id="6F7Ck0YBmOQ59BSvPMI2-4" style="edgeStyle=orthogonalEdgeStyle;curved=1;rounded=0;orthogonalLoop=1;jettySize=auto;html=1;exitX=0.5;exitY=1;exitDx=0;exitDy=0;entryX=0.5;entryY=0;entryDx=0;entryDy=0;fontSize=12;fontColor=#000000;startArrow=none;startFill=0;strokeColor=#000000;" parent="1" source="6F7Ck0YBmOQ59BSvPMI2-6" target="6F7Ck0YBmOQ59BSvPMI2-8" edge="1">
          <mxGeometry relative="1" as="geometry" />
        </mxCell>
        <mxCell id="6F7Ck0YBmOQ59BSvPMI2-5" style="edgeStyle=orthogonalEdgeStyle;rounded=0;orthogonalLoop=1;jettySize=auto;html=1;exitX=0;exitY=0.5;exitDx=0;exitDy=0;entryX=0;entryY=0.5;entryDx=0;entryDy=0;fontSize=12;fontColor=#000000;startArrow=none;startFill=0;strokeColor=#000000;" parent="1" source="6F7Ck0YBmOQ59BSvPMI2-6" target="6F7Ck0YBmOQ59BSvPMI2-30" edge="1">
          <mxGeometry relative="1" as="geometry">
            <Array as="points">
              <mxPoint x="-577" y="185" />
              <mxPoint x="-577" y="1480" />
            </Array>
          </mxGeometry>
        </mxCell>
        <mxCell id="6F7Ck0YBmOQ59BSvPMI2-6" value="check params" style="rhombus;whiteSpace=wrap;html=1;fontSize=12;fontColor=#000000;strokeColor=#000000;gradientColor=none;align=center;verticalAlign=middle;" parent="1" vertex="1">
          <mxGeometry x="-467" y="130" width="120" height="110" as="geometry" />
        </mxCell>
        <mxCell id="6F7Ck0YBmOQ59BSvPMI2-7" style="edgeStyle=orthogonalEdgeStyle;curved=1;rounded=0;orthogonalLoop=1;jettySize=auto;html=1;exitX=0.5;exitY=1;exitDx=0;exitDy=0;entryX=0.5;entryY=0;entryDx=0;entryDy=0;fontSize=12;fontColor=#000000;startArrow=none;startFill=0;strokeColor=#000000;" parent="1" source="6F7Ck0YBmOQ59BSvPMI2-8" target="6F7Ck0YBmOQ59BSvPMI2-11" edge="1">
          <mxGeometry relative="1" as="geometry" />
        </mxCell>
        <mxCell id="6F7Ck0YBmOQ59BSvPMI2-8" value="Select StorageType" style="rounded=0;whiteSpace=wrap;html=1;fontSize=12;fontColor=#000000;strokeColor=#000000;gradientColor=none;align=center;verticalAlign=middle;" parent="1" vertex="1">
          <mxGeometry x="-492" y="300" width="170" height="50" as="geometry" />
        </mxCell>
        <mxCell id="6F7Ck0YBmOQ59BSvPMI2-9" style="edgeStyle=orthogonalEdgeStyle;curved=1;rounded=0;orthogonalLoop=1;jettySize=auto;html=1;exitX=0.5;exitY=1;exitDx=0;exitDy=0;entryX=0.5;entryY=0;entryDx=0;entryDy=0;fontSize=12;fontColor=#000000;startArrow=none;startFill=0;strokeColor=#000000;" parent="1" source="6F7Ck0YBmOQ59BSvPMI2-11" target="6F7Ck0YBmOQ59BSvPMI2-13" edge="1">
          <mxGeometry relative="1" as="geometry" />
        </mxCell>
        <mxCell id="6F7Ck0YBmOQ59BSvPMI2-10" style="edgeStyle=orthogonalEdgeStyle;rounded=0;orthogonalLoop=1;jettySize=auto;html=1;fontSize=12;fontColor=#000000;startArrow=none;startFill=0;strokeColor=#000000;" parent="1" source="6F7Ck0YBmOQ59BSvPMI2-11" edge="1">
          <mxGeometry relative="1" as="geometry">
            <mxPoint x="-577" y="470" as="targetPoint" />
          </mxGeometry>
        </mxCell>
        <mxCell id="6F7Ck0YBmOQ59BSvPMI2-11" value="check TimeZone" style="rhombus;whiteSpace=wrap;html=1;fontSize=12;fontColor=#000000;strokeColor=#000000;gradientColor=none;align=center;verticalAlign=middle;" parent="1" vertex="1">
          <mxGeometry x="-462" y="420" width="110" height="100" as="geometry" />
        </mxCell>
        <mxCell id="6F7Ck0YBmOQ59BSvPMI2-12" style="edgeStyle=orthogonalEdgeStyle;curved=1;rounded=0;orthogonalLoop=1;jettySize=auto;html=1;exitX=0.5;exitY=1;exitDx=0;exitDy=0;fontSize=12;fontColor=#000000;startArrow=none;startFill=0;strokeColor=#000000;" parent="1" source="6F7Ck0YBmOQ59BSvPMI2-13" target="6F7Ck0YBmOQ59BSvPMI2-16" edge="1">
          <mxGeometry relative="1" as="geometry" />
        </mxCell>
        <mxCell id="6F7Ck0YBmOQ59BSvPMI2-13" value="parse job tag" style="rounded=0;whiteSpace=wrap;html=1;fontSize=12;fontColor=#000000;strokeColor=#000000;gradientColor=none;align=center;verticalAlign=middle;" parent="1" vertex="1">
          <mxGeometry x="-492" y="580" width="170" height="50" as="geometry" />
        </mxCell>
        <mxCell id="6F7Ck0YBmOQ59BSvPMI2-14" style="edgeStyle=orthogonalEdgeStyle;curved=1;rounded=0;orthogonalLoop=1;jettySize=auto;html=1;exitX=0.5;exitY=1;exitDx=0;exitDy=0;entryX=0.5;entryY=0;entryDx=0;entryDy=0;fontSize=12;fontColor=#000000;startArrow=none;startFill=0;strokeColor=#000000;" parent="1" source="6F7Ck0YBmOQ59BSvPMI2-16" target="6F7Ck0YBmOQ59BSvPMI2-18" edge="1">
          <mxGeometry relative="1" as="geometry" />
        </mxCell>
        <mxCell id="6F7Ck0YBmOQ59BSvPMI2-15" style="edgeStyle=orthogonalEdgeStyle;rounded=0;orthogonalLoop=1;jettySize=auto;html=1;fontSize=12;fontColor=#000000;startArrow=none;startFill=0;strokeColor=#000000;" parent="1" source="6F7Ck0YBmOQ59BSvPMI2-16" edge="1">
          <mxGeometry relative="1" as="geometry">
            <mxPoint x="-577" y="750" as="targetPoint" />
          </mxGeometry>
        </mxCell>
        <mxCell id="6F7Ck0YBmOQ59BSvPMI2-16" value="adjust job priority" style="rhombus;whiteSpace=wrap;html=1;fontSize=12;fontColor=#000000;strokeColor=#000000;gradientColor=none;align=center;verticalAlign=middle;" parent="1" vertex="1">
          <mxGeometry x="-467" y="690" width="120" height="120" as="geometry" />
        </mxCell>
        <mxCell id="6F7Ck0YBmOQ59BSvPMI2-17" style="edgeStyle=orthogonalEdgeStyle;curved=1;rounded=0;orthogonalLoop=1;jettySize=auto;html=1;exitX=0.5;exitY=1;exitDx=0;exitDy=0;entryX=0.5;entryY=0;entryDx=0;entryDy=0;fontSize=12;fontColor=#000000;startArrow=none;startFill=0;strokeColor=#000000;" parent="1" source="6F7Ck0YBmOQ59BSvPMI2-18" target="6F7Ck0YBmOQ59BSvPMI2-20" edge="1">
          <mxGeometry relative="1" as="geometry" />
        </mxCell>
        <mxCell id="6F7Ck0YBmOQ59BSvPMI2-18" value="calc partirion key &amp;amp; slot idx&lt;br&gt;(crc32)" style="rounded=0;whiteSpace=wrap;html=1;fontSize=12;fontColor=#000000;strokeColor=#000000;gradientColor=none;align=center;verticalAlign=middle;" parent="1" vertex="1">
          <mxGeometry x="-487" y="870" width="160" height="60" as="geometry" />
        </mxCell>
        <mxCell id="6F7Ck0YBmOQ59BSvPMI2-19" style="edgeStyle=orthogonalEdgeStyle;curved=1;rounded=0;orthogonalLoop=1;jettySize=auto;html=1;exitX=0.5;exitY=1;exitDx=0;exitDy=0;entryX=0.5;entryY=0;entryDx=0;entryDy=0;fontSize=12;fontColor=#000000;startArrow=none;startFill=0;strokeColor=#000000;" parent="1" source="6F7Ck0YBmOQ59BSvPMI2-20" target="6F7Ck0YBmOQ59BSvPMI2-25" edge="1">
          <mxGeometry relative="1" as="geometry" />
        </mxCell>
        <mxCell id="6F7Ck0YBmOQ59BSvPMI2-20" value="set job meta data&lt;br&gt;&amp;amp;&lt;br&gt;add job to redis" style="rounded=0;whiteSpace=wrap;html=1;fontSize=12;fontColor=#000000;strokeColor=#000000;gradientColor=none;align=center;verticalAlign=middle;" parent="1" vertex="1">
          <mxGeometry x="-487" y="990" width="160" height="60" as="geometry" />
        </mxCell>
        <mxCell id="6F7Ck0YBmOQ59BSvPMI2-21" style="edgeStyle=orthogonalEdgeStyle;curved=1;rounded=0;orthogonalLoop=1;jettySize=auto;html=1;entryX=0;entryY=0.5;entryDx=0;entryDy=0;fontSize=12;fontColor=#000000;startArrow=none;startFill=0;strokeColor=#000000;" parent="1" source="6F7Ck0YBmOQ59BSvPMI2-25" target="6F7Ck0YBmOQ59BSvPMI2-27" edge="1">
          <mxGeometry relative="1" as="geometry" />
        </mxCell>
        <mxCell id="6F7Ck0YBmOQ59BSvPMI2-22" value="Y" style="edgeLabel;html=1;align=center;verticalAlign=middle;resizable=0;points=[];fontSize=12;fontColor=#000000;" parent="6F7Ck0YBmOQ59BSvPMI2-21" vertex="1" connectable="0">
          <mxGeometry x="-0.0667" y="1" relative="1" as="geometry">
            <mxPoint as="offset" />
          </mxGeometry>
        </mxCell>
        <mxCell id="6F7Ck0YBmOQ59BSvPMI2-23" style="edgeStyle=orthogonalEdgeStyle;curved=1;rounded=0;orthogonalLoop=1;jettySize=auto;html=1;exitX=0.5;exitY=1;exitDx=0;exitDy=0;entryX=0.5;entryY=0;entryDx=0;entryDy=0;fontSize=12;fontColor=#000000;startArrow=none;startFill=0;strokeColor=#000000;" parent="1" source="6F7Ck0YBmOQ59BSvPMI2-25" target="6F7Ck0YBmOQ59BSvPMI2-29" edge="1">
          <mxGeometry relative="1" as="geometry" />
        </mxCell>
        <mxCell id="6F7Ck0YBmOQ59BSvPMI2-24" value="N" style="edgeLabel;html=1;align=center;verticalAlign=middle;resizable=0;points=[];fontSize=12;fontColor=#000000;" parent="6F7Ck0YBmOQ59BSvPMI2-23" vertex="1" connectable="0">
          <mxGeometry x="-0.275" y="1" relative="1" as="geometry">
            <mxPoint as="offset" />
          </mxGeometry>
        </mxCell>
        <mxCell id="6F7Ck0YBmOQ59BSvPMI2-25" value="trigger time &amp;gt; two minutes" style="rhombus;whiteSpace=wrap;html=1;fontSize=12;fontColor=#000000;strokeColor=#000000;gradientColor=none;align=center;verticalAlign=middle;" parent="1" vertex="1">
          <mxGeometry x="-482" y="1100" width="150" height="130" as="geometry" />
        </mxCell>
        <mxCell id="6F7Ck0YBmOQ59BSvPMI2-26" style="edgeStyle=orthogonalEdgeStyle;rounded=0;orthogonalLoop=1;jettySize=auto;html=1;entryX=1;entryY=0.5;entryDx=0;entryDy=0;fontSize=12;fontColor=#000000;startArrow=none;startFill=0;strokeColor=#000000;" parent="1" source="6F7Ck0YBmOQ59BSvPMI2-27" target="6F7Ck0YBmOQ59BSvPMI2-29" edge="1">
          <mxGeometry relative="1" as="geometry">
            <Array as="points">
              <mxPoint x="-147" y="1325" />
            </Array>
          </mxGeometry>
        </mxCell>
        <mxCell id="6F7Ck0YBmOQ59BSvPMI2-27" value="notify simagd" style="rounded=0;whiteSpace=wrap;html=1;fontSize=12;fontColor=#000000;strokeColor=#000000;gradientColor=none;align=center;verticalAlign=middle;" parent="1" vertex="1">
          <mxGeometry x="-217" y="1135" width="120" height="60" as="geometry" />
        </mxCell>
        <mxCell id="6F7Ck0YBmOQ59BSvPMI2-28" style="edgeStyle=orthogonalEdgeStyle;rounded=0;orthogonalLoop=1;jettySize=auto;html=1;exitX=0.5;exitY=1;exitDx=0;exitDy=0;entryX=0.5;entryY=0;entryDx=0;entryDy=0;fontSize=12;fontColor=#000000;startArrow=none;startFill=0;strokeColor=#000000;" parent="1" source="6F7Ck0YBmOQ59BSvPMI2-29" target="6F7Ck0YBmOQ59BSvPMI2-30" edge="1">
          <mxGeometry relative="1" as="geometry" />
        </mxCell>
        <mxCell id="6F7Ck0YBmOQ59BSvPMI2-29" value="update job db status&lt;br&gt;&amp;amp;&lt;br&gt;add partition count map" style="rounded=0;whiteSpace=wrap;html=1;fontSize=12;fontColor=#000000;strokeColor=#000000;gradientColor=none;align=center;verticalAlign=middle;" parent="1" vertex="1">
          <mxGeometry x="-522" y="1290" width="230" height="70" as="geometry" />
        </mxCell>
        <mxCell id="6F7Ck0YBmOQ59BSvPMI2-30" value="AddJob Response" style="rounded=0;whiteSpace=wrap;html=1;fontSize=12;fontColor=#000000;strokeColor=#000000;gradientColor=none;align=center;verticalAlign=middle;" parent="1" vertex="1">
          <mxGeometry x="-507" y="1450" width="200" height="60" as="geometry" />
        </mxCell>
      </root>
    </mxGraphModel>
  </diagram>
</mxfile>
